<svg width="283" height="39" viewBox="4 0 283 39" fill="none" xmlns="http://www.w3.org/2000/svg">
<g filter="url(#filter0_d_101_56)">
<path d="M20.5426 15.9091C20.5426 17.8267 20.1964 19.4839 19.5039 20.8807C18.8114 22.2775 17.8615 23.3546 16.6541 24.1122C15.4467 24.8698 14.0677 25.2486 12.517 25.2486C10.9664 25.2486 9.58736 24.8698 8.37997 24.1122C7.17259 23.3546 6.22266 22.2775 5.53018 20.8807C4.83771 19.4839 4.49148 17.8267 4.49148 15.9091C4.49148 13.9915 4.83771 12.3343 5.53018 10.9375C6.22266 9.54072 7.17259 8.46354 8.37997 7.70597C9.58736 6.94839 10.9664 6.5696 12.517 6.5696C14.0677 6.5696 15.4467 6.94839 16.6541 7.70597C17.8615 8.46354 18.8114 9.54072 19.5039 10.9375C20.1964 12.3343 20.5426 13.9915 20.5426 15.9091ZM18.4119 15.9091C18.4119 14.3348 18.1486 13.006 17.6218 11.9229C17.101 10.8398 16.3937 10.0201 15.5 9.46378C14.6122 8.90743 13.6179 8.62926 12.517 8.62926C11.4162 8.62926 10.4189 8.90743 9.52521 9.46378C8.63743 10.0201 7.93016 10.8398 7.40341 11.9229C6.88258 13.006 6.62216 14.3348 6.62216 15.9091C6.62216 17.4834 6.88258 18.8121 7.40341 19.8952C7.93016 20.9783 8.63743 21.7981 9.52521 22.3544C10.4189 22.9107 11.4162 23.1889 12.517 23.1889C13.6179 23.1889 14.6122 22.9107 15.5 22.3544C16.3937 21.7981 17.101 20.9783 17.6218 19.8952C18.1486 18.8121 18.4119 17.4834 18.4119 15.9091ZM24.2447 25V6.81818H26.4464V23.0469H34.8981V25H24.2447ZM40.5089 6.81818V25H38.3072V6.81818H40.5089ZM45.6691 6.81818L51.0669 22.1236H51.2799L56.6776 6.81818H58.9859L52.3097 25H50.037L43.3609 6.81818H45.6691ZM64.0196 6.81818V25H61.8179V6.81818H64.0196ZM68.4341 25V6.81818H79.4071V8.77131H70.6358V14.9148H78.839V16.8679H70.6358V23.0469H79.5492V25H68.4341ZM83.3755 25V6.81818H89.519C90.9395 6.81818 92.1054 7.06084 93.0169 7.54616C93.9283 8.02557 94.603 8.68549 95.041 9.52592C95.479 10.3664 95.698 11.3222 95.698 12.3935C95.698 13.4647 95.479 14.4147 95.041 15.2433C94.603 16.0719 93.9313 16.7229 93.0257 17.1964C92.1202 17.6639 90.9631 17.8977 89.5545 17.8977H84.5829V15.9091H89.4835C90.4541 15.9091 91.2354 15.767 91.8272 15.483C92.425 15.1989 92.8571 14.7964 93.1234 14.2756C93.3957 13.7488 93.5318 13.1214 93.5318 12.3935C93.5318 11.6655 93.3957 11.0292 93.1234 10.4847C92.8511 9.94022 92.4161 9.52 91.8184 9.22408C91.2206 8.92223 90.4305 8.77131 89.448 8.77131H85.5772V25H83.3755ZM91.9338 16.8324L96.4082 25H93.8514L89.448 16.8324H91.9338ZM106.398 25V6.81818H108.6V23.0469H117.051V25H106.398ZM122.662 6.81818V25H120.46V6.81818H122.662ZM141.494 6.81818V25H139.364L129.456 10.7244H129.278V25H127.077V6.81818H129.207L139.151 21.1293H139.328V6.81818H141.494ZM155.701 0.958806V30.8594H153.926V0.958806H155.701ZM174.489 27.05L174.464 27.075C174.464 27.125 174.489 27.125 174.489 27.125C174.539 27.125 174.589 27.125 174.664 27.2L174.539 27.35C174.064 27.55 173.689 27.875 173.239 28.175C173.089 28.3 172.814 28.35 172.714 28.525C172.589 28.725 172.314 28.725 172.164 28.9C172.039 29.025 171.839 29.1 171.614 29.2L170.514 29.7C170.414 29.7 170.389 29.75 170.389 29.75C170.039 29.7 169.714 29.875 169.389 29.875C169.264 29.875 169.139 29.925 169.039 29.95H168.939C168.639 29.85 168.414 29.875 168.139 29.875C168.064 29.85 167.964 29.775 167.939 29.775C167.839 29.75 167.739 29.65 167.639 29.65C166.989 29.5 166.589 29.05 166.364 28.475C166.289 28.3 166.139 28.1 166.114 27.875C165.989 27.7 165.889 27.525 165.864 27.35C165.664 26.775 165.539 26.425 165.639 25.925C165.714 25.45 165.839 24.975 165.939 24.475C165.989 24.1 166.139 23.6 166.389 23.225C166.489 23.075 166.489 22.825 166.564 22.625L166.964 21.575C166.989 21.55 166.964 21.525 166.964 21.475L167.189 21.2C167.189 21.2 167.214 21.125 167.189 21.125C167.214 21.1 167.264 21.05 167.264 21.025L167.389 20.825C167.414 20.825 167.489 20.825 167.389 20.75L167.514 20.55C167.539 20.55 167.539 20.5 167.539 20.5C167.614 20.45 167.614 20.4 167.614 20.325L167.714 20.1C167.814 20.1 167.814 20 167.839 19.975L168.139 19.475V19.45L168.164 19.375C168.164 19.35 168.214 19.275 168.289 19.175C168.339 19.175 168.339 19.15 168.364 19.075C168.539 19.05 168.564 18.85 168.639 18.725C168.714 18.575 168.789 18.475 168.964 18.475C169.039 18.475 169.189 18.425 169.064 18.225C169.064 18.2 169.064 18.15 169.139 18.15C169.339 17.9 169.489 17.525 169.764 17.3C169.914 16.875 170.189 16.575 170.514 16.25C170.714 16.05 170.839 15.825 171.039 15.6L171.539 15.025C171.764 14.7 172.064 14.475 172.364 14.175C172.489 14.025 172.664 13.9 172.764 13.75C172.789 13.65 172.864 13.55 172.964 13.525C173.139 13.45 173.189 13.25 173.339 13.125C173.464 13.05 173.614 12.925 173.714 12.75C173.914 12.525 174.139 12.4 174.389 12.15L174.789 11.8C175.289 11.35 175.864 10.9 176.514 10.575L176.739 10.425C176.914 10.25 177.014 10.05 177.264 10.05C177.264 10.05 177.289 10.025 177.364 10.025C177.864 9.525 178.464 9.225 179.089 8.925C179.289 8.825 179.439 8.6 179.664 8.625C179.889 8.5 180.064 8.375 180.289 8.275C180.464 8.175 180.689 8.15 180.889 7.975C181.214 7.85 181.514 7.65 181.839 7.525L183.339 7.025C183.564 6.9 183.864 6.9 184.114 6.7C184.139 6.7 184.214 6.65 184.289 6.65C184.514 6.65 184.739 6.625 184.964 6.6L185.389 6.45C185.464 6.425 185.639 6.45 185.714 6.425C185.889 6.425 186.039 6.425 186.139 6.4C186.264 6.3 186.364 6.45 186.489 6.4L187.214 6.45C187.214 6.45 187.314 6.45 187.314 6.5C187.414 6.625 187.639 6.65 187.839 6.725C188.039 6.85 188.214 6.925 188.364 7.05C188.864 7.375 189.189 7.85 189.414 8.375V8.5C189.464 8.675 189.689 8.725 189.689 8.95C189.689 9.125 189.689 9.275 189.764 9.425C189.764 9.5 189.789 9.525 189.764 9.55C189.614 9.775 189.764 9.975 189.639 10.225C189.639 10.275 189.614 10.425 189.589 10.475C189.389 10.85 189.189 11.175 188.864 11.5L187.939 12.425C187.689 12.75 187.339 12.875 186.964 12.95C186.814 13.025 186.714 12.925 186.564 12.875C186.539 12.875 186.489 12.75 186.489 12.75L186.789 12.275C186.889 12.2 186.964 12.15 186.989 12.05C187.389 11.575 187.789 11.125 188.064 10.65C188.339 10.225 188.639 9.725 188.564 9.225C188.539 8.95 188.564 8.7 188.564 8.5C188.489 7.95 188.264 7.525 187.914 7.15L187.314 6.85C187.139 6.95 186.889 6.9 186.689 7.025C186.664 7.05 186.564 7.05 186.489 7.05C186.089 6.95 185.714 7.1 185.389 7.15C184.939 7.275 184.414 7.325 183.989 7.55C183.789 7.7 183.464 7.65 183.264 7.775C182.989 7.9 182.739 7.9 182.539 8.15C182.414 8.25 182.139 8.3 181.939 8.375C181.689 8.45 181.464 8.6 181.264 8.7L179.764 9.6C179.464 9.775 179.189 9.925 178.914 10.15L178.539 10.375C178.364 10.45 178.164 10.525 178.039 10.7C177.964 10.8 177.889 10.8 177.789 10.85C177.689 10.85 177.589 10.9 177.489 10.95C177.289 11.175 177.039 11.35 176.839 11.6C176.714 11.775 176.514 11.925 176.314 12.025C175.989 12.275 175.689 12.6 175.364 12.825C175.214 12.875 175.164 13.025 175.039 13.075C174.839 13.375 174.564 13.6 174.364 13.85C174.289 13.975 174.114 14.075 173.964 14.175C173.914 14.275 173.814 14.4 173.689 14.575L173.439 14.9L173.214 15.1C172.914 15.25 172.714 15.525 172.539 15.825C172.464 15.95 172.364 16.025 172.264 16.15C172.064 16.25 171.939 16.4 171.764 16.6C171.764 16.85 171.514 16.9 171.439 17.1C171.164 17.45 170.814 17.7 170.639 18.125C170.514 18.475 170.139 18.825 169.914 19.15L169.664 19.35C169.539 19.375 169.539 19.575 169.439 19.6C169.389 19.675 169.289 19.7 169.289 19.725C169.339 20.2 168.989 20.45 168.789 20.825C168.714 20.925 168.539 21.025 168.564 21.25C168.414 21.45 168.289 21.7 168.064 21.875C167.939 21.975 167.814 22.15 167.839 22.35C167.839 22.4 167.814 22.45 167.739 22.475L167.539 23.075C167.514 23.225 167.414 23.425 167.289 23.525C167.014 23.7 166.964 23.95 166.989 24.25C166.989 24.425 166.914 24.575 166.864 24.775C166.864 24.9 166.789 25.1 166.764 25.275C166.764 25.45 166.764 25.675 166.664 25.8C166.589 25.875 166.589 25.95 166.589 26.025V27.275C166.564 27.55 166.764 27.875 166.764 28.175C166.764 28.2 166.814 28.3 166.914 28.35C166.989 28.4 167.114 28.475 167.289 28.525C167.539 28.6 167.814 28.675 168.114 28.725C168.164 28.775 168.364 28.8 168.439 28.725C168.639 28.6 168.939 28.675 169.189 28.6C169.539 28.475 169.914 28.375 170.339 28.2C170.614 28.125 170.939 28 171.164 27.8C171.539 27.7 171.889 27.45 172.289 27.275C172.539 27.125 172.814 27.025 173.039 26.825L173.214 26.65C173.814 26.425 174.339 25.95 174.839 25.6C175.039 25.5 175.214 25.35 175.414 25.275C175.639 25.15 175.789 24.9 175.989 24.8L176.539 24.45L177.139 24.025C177.164 23.975 177.264 24.025 177.364 23.975L177.139 24.325L175.864 25.2C175.614 25.25 175.464 25.525 175.214 25.6C174.864 25.95 174.464 26.125 174.114 26.425C173.914 26.425 174.064 26.625 173.964 26.65H173.689C173.689 26.7 173.639 26.7 173.639 26.7C173.614 26.775 173.514 26.825 173.514 26.85C173.464 27.025 173.339 26.975 173.214 27.025C173.189 27.025 173.089 27.025 173.039 27.05C172.789 27.35 172.389 27.45 172.089 27.75V27.775C172.164 27.8 172.164 27.8 172.189 27.8C172.089 27.9 172.089 27.8 172.089 27.775L171.839 27.875C171.539 28 171.239 28.2 170.964 28.3C170.939 28.3 170.939 28.35 170.964 28.375C171.014 28.4 171.039 28.475 171.064 28.475H171.139C171.214 28.3 171.389 28.375 171.464 28.35C171.964 28.175 172.389 27.95 172.814 27.7C172.964 27.65 173.089 27.55 173.214 27.525L174.114 27.025C174.464 26.825 174.789 26.55 175.214 26.425C175.289 26.4 175.389 26.225 175.464 26.15C175.639 26 175.814 25.875 176.039 25.725C176.314 25.575 176.564 25.35 176.914 25.15C176.939 25.1 177.014 25.1 177.064 25.1C177.039 25.2 177.014 25.275 176.939 25.3C176.914 25.45 177.014 25.6 176.839 25.675C176.714 25.7 176.664 25.8 176.564 25.925C176.464 26 176.289 25.95 176.189 26.025L176.139 26.1H176.114C176.114 26.025 176.039 25.95 176.039 25.95C175.914 26 175.814 26.1 175.814 26.125C175.639 26.55 175.589 26.625 175.264 26.825L174.664 27.2C174.664 27.075 174.564 27.05 174.489 27.05ZM180.389 22.175C180.289 22.35 180.289 22.35 180.139 22.175C179.764 22.375 179.414 22.6 179.089 22.9C179.014 23.025 178.914 23.075 178.814 23.025L178.689 23.225L178.539 23.325C178.164 23.5 177.889 23.825 177.489 23.975H177.364C177.464 23.7 177.789 23.6 178.039 23.45C178.264 23.275 178.464 23.2 178.614 23.075C178.689 23.025 178.739 23.025 178.789 23.025C178.814 23 178.789 22.875 178.814 22.825C179.139 22.625 179.414 22.4 179.714 22.2C179.864 22.15 179.989 21.975 180.139 22.025V22.175H180.389ZM179.289 23.525C179.289 23.55 179.339 23.6 179.439 23.65C179.439 23.65 179.439 23.7 179.414 23.7C179.014 23.925 178.689 24.225 178.289 24.45C178.114 24.65 177.939 24.8 177.714 24.875C177.489 25 177.364 25.1 177.139 25.1C177.164 24.9 177.289 24.8 177.464 24.7L177.814 24.575C178.264 24.125 178.789 23.925 179.289 23.525ZM185.714 18.375C185.614 18.55 185.464 18.625 185.239 18.65C185.114 18.65 184.964 18.85 184.789 18.925C184.739 18.925 184.714 18.975 184.714 18.975C184.689 18.925 184.614 18.925 184.614 18.875C184.589 18.85 184.589 18.825 184.614 18.775C184.614 18.775 184.689 18.725 184.689 18.65C185.239 18.425 185.789 18 186.289 17.675C186.464 17.55 186.564 17.525 186.764 17.525C186.714 17.675 186.664 17.675 186.564 17.7C186.414 17.775 186.214 17.9 186.089 18.025C185.989 18.2 185.839 18.225 185.714 18.375ZM180.489 22.825C180.364 23.025 180.164 23.2 179.989 23.3C179.764 23.425 179.614 23.525 179.439 23.6C179.439 23.55 179.414 23.525 179.289 23.525C179.414 23.45 179.439 23.3 179.464 23.3C179.714 23.2 179.989 23.075 180.164 22.825C180.264 22.775 180.364 22.775 180.464 22.7H180.489C180.489 22.775 180.539 22.8 180.489 22.825ZM183.089 20.1L182.414 20.6H182.239C182.314 20.4 182.514 20.2 182.664 20.125C182.839 20.025 182.964 19.875 183.089 19.775C183.139 19.725 183.164 19.725 183.164 19.8C183.214 19.875 183.214 19.9 183.164 19.9C183.164 20 183.139 20.025 183.089 20.1ZM183.989 19.275C184.014 19.3 184.089 19.35 184.014 19.35C184.014 19.45 183.989 19.475 183.914 19.5L183.689 19.675C183.589 19.725 183.564 19.775 183.664 19.9C183.664 19.9 183.589 20 183.564 20.025C183.464 20.125 183.464 20 183.439 19.975C183.439 19.9 183.389 19.875 183.364 19.8C183.364 19.725 183.364 19.7 183.389 19.675C183.489 19.45 183.714 19.3 183.914 19.275H183.989ZM180.389 22.025V22.05V22.025H180.139C180.339 21.775 180.539 21.55 180.814 21.45H180.989C180.914 21.575 180.789 21.75 180.589 21.8L180.389 22.025ZM181.814 20.85C181.889 20.7 182.039 20.55 182.239 20.6C182.214 20.75 182.039 20.85 181.939 20.925H181.814C181.789 20.925 181.789 20.9 181.814 20.85ZM182.414 21.25C182.539 21.05 182.614 20.925 182.839 21C182.789 21.1 182.664 21.2 182.539 21.325H182.414C182.364 21.275 182.364 21.275 182.414 21.25ZM187.214 17.175C187.189 17.275 187.139 17.325 187.039 17.375L186.764 17.525C186.764 17.5 186.764 17.325 186.789 17.3C186.914 17.275 187.039 17.125 187.214 17.175ZM182.839 20.925C182.964 20.75 183.039 20.6 183.339 20.6C183.214 20.825 183.089 20.925 182.839 20.925ZM181.014 22.25C181.164 22.15 181.214 21.95 181.389 21.95H181.414C181.389 22.1 181.389 22.175 181.289 22.25C181.264 22.3 181.189 22.25 181.114 22.25H181.014ZM180.489 22.1C180.464 22.15 180.389 22.15 180.389 22.175V22.05C180.389 22.1 180.464 22.1 180.489 22.1ZM176.089 26.15C175.989 26.1 176.089 26.1 176.114 26.1C176.114 26.125 176.114 26.125 176.089 26.15ZM198.09 19.375L196.565 20.375C196.54 20.325 195.39 20.65 195.365 20.65C195.315 20.775 195.19 20.825 195.065 20.825C194.765 20.825 194.44 20.85 194.115 20.9C193.69 20.95 193.24 20.95 192.765 20.95C192.015 20.95 192.04 20.85 191.59 21.5L190.715 22.425C190.665 22.5 190.665 22.525 190.615 22.575C189.89 23.025 189.29 23.6 188.54 24C188.015 24.275 187.49 24.425 186.915 24.425C185.89 24.35 185.34 23.55 185.34 22.775C185.365 22.575 185.365 22.325 185.49 22.1C185.69 21.175 186.09 20.375 186.69 19.675C186.965 19.35 187.19 19 187.49 18.675C187.74 18.475 187.815 18.2 187.815 17.975C187.79 17.675 187.84 17.475 187.99 17.275C188.165 17.075 188.34 16.9 188.54 16.75C188.865 16.575 189.215 16.45 189.54 16.325C189.665 16.225 189.84 16.225 190.015 16.225C190.24 16.175 190.465 16.175 190.715 16.225C190.915 16.225 191.09 16.225 191.265 16.15C191.615 16.025 191.89 16.225 192.19 16.325C192.315 16.35 192.315 16.55 192.19 16.625C192.14 16.625 192.04 16.625 192.115 16.7C192.215 16.9 192.34 17.05 192.465 17.2C193.015 17.775 193.04 18.475 192.865 19.15C192.765 19.425 192.69 19.725 192.54 20.025C192.94 20.125 193.365 20.125 193.765 20.025C194.365 19.925 194.965 19.8 195.59 19.675C195.94 19.55 196.29 19.5 196.715 19.4C196.915 19.325 197.115 19.25 197.24 19.1C197.465 19 197.665 19.025 197.865 19C197.94 18.925 198.09 19.35 198.09 19.375ZM190.565 20.95C190.59 20.9 190.565 20.775 190.49 20.775C190.465 20.75 190.39 20.75 190.365 20.675C189.465 20.5 188.815 20.025 188.24 19.35C188.115 19.225 188.015 19.225 187.99 19.325C187.79 19.675 187.54 19.95 187.415 20.375C187.19 20.85 186.965 21.3 186.69 21.775C186.49 22.175 186.365 22.675 186.165 23.05C186.09 23.2 186.24 23.325 186.39 23.375H186.79C186.965 23.425 187.215 23.325 187.49 23.225C188.415 22.775 189.215 22.2 189.94 21.55C190.14 21.35 190.29 21.175 190.565 20.95ZM192.015 18.3C192.115 17.75 191.89 17.275 191.515 16.95C191.49 16.9 191.415 16.85 191.315 16.775C191.265 16.775 191.19 16.75 191.165 16.775C190.79 16.975 190.49 17.15 190.19 17.4C189.84 17.6 189.54 17.875 189.215 18.125L188.665 18.625C188.54 18.725 188.54 18.825 188.665 18.925C188.715 19 188.815 19.075 188.84 19.15C189.04 19.4 189.415 19.5 189.69 19.6C190.14 19.8 190.59 19.85 191.015 19.925C191.265 19.95 191.44 19.875 191.515 19.725C191.79 19.25 191.99 18.8 192.015 18.3ZM220.097 18.8C220.247 19.075 220.197 19.25 219.922 19.425C219.697 19.55 219.472 19.725 219.322 19.85C218.772 20.225 218.297 20.575 217.722 20.825C217.622 20.85 217.572 20.9 217.522 20.95C216.772 21.55 215.872 21.85 215.122 22.25C214.497 22.525 213.922 22.8 213.372 23.1L212.497 23.5C212.272 23.55 212.072 23.55 211.897 23.5C211.772 23.45 211.672 23.375 211.622 23.325C211.322 23.05 211.222 22.7 211.147 22.325C211.072 21.975 211.047 21.55 211.147 21.15C211.322 20.65 211.547 20.125 211.747 19.55V19.35C211.672 19.4 211.647 19.4 211.622 19.4C211.072 19.6 210.572 19.85 210.097 20.125C209.797 20.25 209.497 20.425 209.247 20.65C208.897 20.825 208.572 21.075 208.272 21.25L207.222 21.875L205.672 22.975C205.597 23.05 205.497 23.1 205.397 23.125C205.122 23.3 204.897 23.3 204.722 23.025C204.597 22.775 204.447 22.5 204.372 22.2C204.272 22.025 204.372 21.8 204.447 21.6C204.572 21.35 204.597 21.1 204.722 20.825C205.172 19.725 205.522 18.525 205.922 17.4L206.022 16.95C205.822 16.9 205.747 17.05 205.672 17.075C205.522 17.1 205.422 17.2 205.322 17.25C205.272 17.35 205.172 17.4 205.097 17.425C204.947 17.5 204.872 17.575 204.772 17.65C204.622 17.75 204.572 17.825 204.447 17.875C203.847 18.4 203.222 18.9 202.572 19.4C202.447 19.525 202.322 19.6 202.147 19.75C201.922 20.125 201.597 20.375 201.272 20.65C200.897 20.95 200.522 21.35 200.122 21.775C199.872 22.025 199.647 22.325 199.347 22.6C199.347 22.6 199.347 22.675 199.322 22.675C198.747 23.1 198.297 23.775 197.722 24.275C197.422 24.475 197.172 24.725 196.947 24.975C196.872 25.05 196.822 25.075 196.672 25.075C196.497 25.175 196.372 25.05 196.272 24.975C195.747 24.475 195.597 23.925 195.772 23.225C195.897 22.925 195.972 22.675 196.072 22.4C196.372 21.55 196.822 20.775 197.297 20.025C197.522 19.6 197.822 19.325 197.922 18.85C198.022 18.675 198.247 18.625 198.372 18.675C198.647 18.825 198.872 19 198.997 19.225C199.172 19.5 199.172 19.85 198.947 20.05C198.697 20.375 198.547 20.825 198.247 21.1C198.122 21.275 198.022 21.5 197.897 21.7C197.597 22.2 197.347 22.675 197.072 23.125C197.022 23.2 197.022 23.3 197.022 23.375C197.297 23.2 197.422 23.05 197.597 22.9L200.172 20.275C200.597 19.875 201.072 19.525 201.522 19.1C202.222 18.475 202.972 17.875 203.697 17.275C204.172 16.95 204.597 16.625 205.047 16.325C205.297 16.15 205.622 15.925 205.947 15.825C206.197 15.675 206.472 15.65 206.697 15.9C206.722 16.025 206.847 16.025 206.872 16.05C207.222 16.225 207.372 16.5 207.272 16.85C207.172 17.4 207.147 17.975 206.872 18.5C206.747 18.625 206.722 18.825 206.697 19C206.647 19.35 206.372 19.6 206.222 19.95C206.147 20.275 206.122 20.65 205.997 20.9C205.822 21.15 205.797 21.3 205.697 21.5V21.55C205.747 21.6 205.747 21.6 205.797 21.6C205.822 21.6 205.822 21.55 205.922 21.55C206.922 20.9 207.972 20.275 208.972 19.6C209.797 19.075 210.672 18.675 211.572 18.375C211.747 18.3 211.947 18.175 212.072 18.1C212.272 17.975 212.497 18 212.697 18.05C212.822 18.05 212.872 18.125 212.872 18.175C212.897 18.3 212.872 18.375 213.022 18.375C213.222 18.375 213.322 18.5 213.322 18.625C213.322 18.8 213.322 18.9 213.297 19.025C213.172 19.325 213.072 19.6 212.997 19.925C212.872 20.325 212.647 20.675 212.422 21.075C212.247 21.475 211.997 21.85 211.947 22.275C211.947 22.4 211.997 22.5 212.097 22.425C212.797 22.175 213.422 21.875 214.097 21.55C214.622 21.3 215.122 21.1 215.547 20.85C216.572 20.425 217.572 19.875 218.522 19.25C218.947 19.025 219.322 18.8 219.747 18.625C219.922 18.525 220.047 18.625 220.097 18.8ZM202.447 18.9C202.572 18.9 202.772 18.85 202.822 18.625C202.622 18.625 202.522 18.8 202.447 18.9ZM218.047 20.225C218.222 20.15 218.347 20.125 218.422 19.925C218.297 19.95 218.122 20.025 218.047 20.225ZM218.747 19.8C218.847 19.8 218.997 19.725 219.022 19.55C218.897 19.55 218.772 19.6 218.747 19.8ZM203.547 18C203.747 18 203.847 17.875 203.922 17.775C203.797 17.775 203.672 17.825 203.547 18ZM203.222 18.3C203.297 18.3 203.372 18.3 203.447 18.125C203.347 18.125 203.272 18.125 203.222 18.3ZM228.761 19.65C228.936 19.75 229.036 20.025 228.886 20.15C228.886 20.2 228.761 20.225 228.736 20.225C228.311 20.275 227.961 20.475 227.536 20.65C226.911 20.925 226.286 21.15 225.686 21.4C225.611 21.45 225.511 21.45 225.486 21.5C224.986 21.875 224.361 21.975 223.836 22.275C223.286 22.5 222.736 22.75 222.211 23C221.461 23.425 220.636 23.725 219.761 23.85C219.611 23.9 219.511 23.9 219.411 24.025C218.911 24.225 218.486 24.05 218.061 23.9C217.786 23.825 217.586 23.7 217.411 23.525C217.111 23.3 216.986 22.975 216.886 22.675C216.786 22.125 216.786 22.025 216.886 21.575L217.061 21.25C217.461 20.35 218.061 19.625 218.811 19.025C219.511 18.375 220.236 17.8 221.086 17.35C221.311 17.175 221.661 17.025 221.986 16.975C222.211 16.875 222.511 16.85 222.736 16.75C223.061 16.525 223.336 16.475 223.636 16.675C223.686 16.75 223.761 16.675 223.861 16.75C223.961 16.775 224.111 16.8 224.136 16.85C224.336 17.025 224.461 17.275 224.536 17.4C224.736 17.75 224.736 18.1 224.486 18.375C224.161 18.775 223.961 19.225 223.461 19.425L223.111 19.65C222.436 20.2 221.611 20.45 220.786 20.575C220.561 20.675 220.286 20.65 220.061 20.65C219.736 20.65 219.336 20.575 218.936 20.575C218.861 20.575 218.811 20.575 218.711 20.675C218.311 21.25 217.811 21.775 217.586 22.425C217.511 22.675 217.611 22.825 217.786 22.9C218.061 22.975 218.386 23.125 218.636 22.975C219.186 22.975 219.736 22.8 220.236 22.675C220.661 22.6 221.111 22.325 221.511 22.2C221.986 21.975 222.361 21.775 222.786 21.55C222.911 21.7 222.911 21.7 223.036 21.55C223.211 21.375 223.436 21.25 223.686 21.15C223.736 21.05 223.861 21.05 224.011 21C224.836 20.65 225.686 20.225 226.461 19.9C226.711 19.75 226.936 19.725 227.186 19.625C227.386 19.55 227.636 19.425 227.811 19.3C228.136 19.2 228.336 19.225 228.536 19.5C228.611 19.575 228.686 19.625 228.761 19.65ZM219.261 19.95C219.236 19.975 219.086 20.125 219.111 20.2C219.186 20.275 219.336 20.2 219.411 20.2C219.511 20.15 219.611 20.15 219.736 20.15V20.2C219.961 20.15 220.261 20.125 220.461 20.075C220.761 19.975 220.986 19.9 221.311 19.75C221.986 19.55 222.536 19.25 223.061 18.85C223.336 18.7 223.561 18.4 223.686 18.1C223.761 18.025 223.761 17.875 223.761 17.75C223.836 17.625 223.736 17.575 223.636 17.475C223.561 17.4 223.461 17.5 223.436 17.575C223.411 17.675 223.286 17.7 223.136 17.7C222.586 17.75 222.036 17.9 221.561 18.2C220.936 18.5 220.436 18.925 219.936 19.3L219.261 19.95ZM223.536 15.3C223.411 15.3 223.361 15.325 223.236 15.3C223.111 15.25 222.936 15.175 222.836 15.025C222.786 14.95 222.786 14.825 222.836 14.775C222.911 14.675 223.011 14.55 223.111 14.55C223.236 14.525 223.311 14.5 223.386 14.425C223.461 14.3 223.536 14.2 223.611 14.075C223.711 14 223.811 13.9 223.886 13.775C223.911 13.725 223.936 13.725 224.011 13.625C224.136 13.45 224.336 13.25 224.436 13.025C224.661 12.825 224.911 12.575 225.161 12.35C225.186 12.3 225.236 12.3 225.261 12.275C225.311 12.225 225.461 12.3 225.461 12.4C225.461 12.5 225.486 12.65 225.536 12.75C225.561 12.8 225.536 12.825 225.536 12.825C225.486 12.95 225.461 13 225.386 13.075C225.361 13.15 225.311 13.2 225.311 13.25C225.261 13.375 225.186 13.45 225.136 13.55C225.086 13.625 225.011 13.725 224.961 13.85C224.861 14.075 224.711 14.3 224.536 14.525C224.486 14.55 224.436 14.6 224.411 14.675C224.336 14.85 224.186 14.975 224.036 15.125C223.911 15.275 223.761 15.325 223.536 15.3ZM243.369 18.525C243.419 18.55 243.419 18.775 243.369 18.8C243.319 18.85 243.194 18.925 243.169 18.925C242.869 18.95 242.644 19.1 242.394 19.25C241.569 19.8 240.719 20.45 239.869 21.05C239.644 21.25 239.469 21.4 239.219 21.55C238.994 21.7 238.844 21.9 238.644 22.025C237.969 22.6 237.369 23.125 236.694 23.65C236.469 23.825 236.194 23.975 235.994 24.075C235.494 24.35 235.044 24.675 234.544 24.95C234.369 25.075 234.194 25.125 233.944 25.15C233.694 25.2 233.369 25.25 233.119 25.375C232.944 25.375 232.819 25.375 232.644 25.275C231.719 24.775 231.519 23.85 231.694 23C231.694 22.9 231.719 22.725 231.794 22.6C232.119 21.9 232.494 21.175 232.844 20.475C233.119 20.025 233.369 19.55 233.669 19.1C233.744 19.025 233.844 18.85 233.844 18.725C233.669 18.8 233.519 18.95 233.369 19.1C233.044 19.55 232.644 19.85 232.319 20.225C231.994 20.575 231.694 20.925 231.419 21.325C230.869 21.975 230.244 22.6 229.644 23.125C229.544 23.2 229.444 23.3 229.369 23.325C229.169 23.625 228.944 23.85 228.644 24.025C228.494 24.05 228.444 24.15 228.369 24.175C228.044 24.475 227.719 24.575 227.344 24.725C227.169 24.775 226.994 24.75 226.819 24.725C226.194 24.55 225.769 23.9 225.744 23.325C225.669 22.9 225.819 22.475 225.994 22.075C226.369 21.175 226.819 20.35 227.394 19.55C227.644 19.2 227.994 18.8 228.319 18.525C228.819 18.025 229.319 17.475 229.869 17.05C230.244 16.8 230.694 16.575 231.119 16.575C231.594 16.65 231.994 16.675 232.419 16.875C232.619 17.025 232.844 17.125 233.019 17.3C233.219 17.4 233.219 17.4 233.419 17.3C233.469 17.275 233.519 17.2 233.544 17.175C233.544 17.35 233.544 17.475 233.469 17.575C233.419 17.675 233.469 17.75 233.519 17.8C233.544 17.825 233.569 17.875 233.694 17.825L233.844 17.75C234.294 17.2 234.894 16.775 235.294 16.125C235.494 15.95 235.669 15.775 235.869 15.625C236.219 15.325 236.469 14.9 236.744 14.5C237.244 13.925 237.719 13.3 238.144 12.75C238.394 12.45 238.594 12.25 238.569 11.875C238.569 11.825 238.594 11.725 238.644 11.675C239.044 11.25 239.469 10.85 239.819 10.45C240.219 10.075 240.619 9.65 240.919 9.175C241.144 8.9 241.444 8.675 241.669 8.475C241.969 8.225 242.369 8.475 242.394 8.775C242.394 8.9 242.394 9.025 242.369 9.1C242.319 9.2 242.319 9.375 242.369 9.475C242.469 9.65 242.394 9.825 242.219 9.975C241.994 10.175 241.769 10.425 241.569 10.625C240.919 11.25 240.244 11.85 239.794 12.575C239.619 12.825 239.319 13.075 239.094 13.3C238.794 13.775 238.444 14.275 238.119 14.7C237.794 15.1 237.569 15.55 237.219 15.925C236.694 16.575 236.219 17.3 235.694 18.025C235.519 18.225 235.419 18.55 235.119 18.6C235.094 18.6 235.094 18.7 235.094 18.7C235.119 18.925 235.044 19.025 234.894 19.125C234.794 19.25 234.769 19.5 234.694 19.625C234.369 20.075 234.169 20.55 233.844 20.975C233.669 21.175 233.544 21.5 233.419 21.775C233.344 21.95 233.244 22.075 233.119 22.275C232.819 22.725 232.619 23.25 232.444 23.775C232.319 24.325 232.419 24.475 232.969 24.25C233.569 24.15 234.194 23.825 234.719 23.45C235.419 23 236.144 22.5 236.744 21.975C237.794 21.075 238.869 20.35 239.919 19.5C240.619 18.95 241.369 18.55 242.094 18.1C242.269 17.975 242.494 18.025 242.669 18.075C242.744 18.325 243.069 18.225 243.194 18.375C243.269 18.4 243.319 18.5 243.369 18.525ZM229.244 21.575C229.944 20.875 230.694 20.15 231.294 19.425C231.519 19.225 231.694 19.1 231.869 18.925C232.119 18.6 232.344 18.325 232.619 18.025C232.644 17.9 232.619 17.825 232.519 17.825H231.944C231.119 17.8 230.669 18.025 230.194 18.375C229.794 18.625 229.444 18.95 229.144 19.25C228.994 19.325 228.919 19.5 228.844 19.625C228.769 19.85 228.544 20.025 228.419 20.2C227.919 20.75 227.569 21.25 227.169 21.9C226.944 22.3 226.819 22.8 226.669 23.25C226.619 23.325 226.669 23.425 226.694 23.45C226.769 23.45 226.819 23.45 226.869 23.425L227.894 22.75C228.319 22.4 228.769 21.975 229.244 21.575ZM233.019 18.525C233.044 18.5 233.019 18.375 232.969 18.275C232.944 18.225 232.844 18.2 232.769 18.275C232.619 18.4 232.494 18.55 232.419 18.7L230.769 20.525C230.744 20.575 230.669 20.65 230.569 20.75C230.494 20.875 230.344 21 230.244 21.15C230.369 21.075 230.494 21.05 230.569 20.975C231.194 20.525 231.694 19.95 232.219 19.425C232.444 19.2 232.644 18.95 232.844 18.725L233.019 18.525ZM233.944 17.05C233.869 17.125 233.769 17.05 233.694 17.025L234.369 16.25C234.394 16.25 234.469 16.275 234.594 16.275C234.544 16.075 234.594 15.95 234.719 15.875C234.944 15.6 235.219 15.375 235.494 15.1C235.594 15 235.669 14.825 235.819 14.7C236.019 14.575 236.194 14.45 236.294 14.2C236.294 14.175 236.444 14.175 236.469 14.125C236.519 14.025 236.544 13.95 236.619 13.925C236.619 13.85 236.644 13.85 236.644 13.85C236.644 13.925 236.694 13.95 236.694 13.95C236.644 14.175 236.619 14.4 236.369 14.525C236.119 14.725 235.869 15.025 235.619 15.225C235.319 15.6 235.044 15.925 234.694 16.25C234.694 16.275 234.644 16.275 234.594 16.275V16.325C234.369 16.575 234.244 16.85 233.944 17.05ZM239.619 20.45C240.144 20.025 240.719 19.575 241.269 19.2C241.469 19.1 241.669 18.95 241.844 18.8C241.644 18.8 241.444 18.85 241.219 19.025C240.894 19.2 240.594 19.425 240.319 19.65C240.019 19.725 239.869 19.9 239.694 20.075C239.494 20.275 239.219 20.375 239.044 20.575C239.294 20.65 239.394 20.55 239.619 20.45ZM238.144 21.375C238.344 21.4 238.469 21.325 238.569 21.15C238.394 21.15 238.269 21.25 238.144 21.375ZM238.844 20.875C239.044 20.875 239.044 20.875 239.044 20.65C238.919 20.65 238.844 20.75 238.844 20.875ZM251.18 19.5C250.83 20.05 250.48 20.475 250.355 20.525V20.375C250.28 20.375 250.13 20.375 250.055 20.525C249.98 20.525 249.93 20.525 249.855 20.575C249.655 20.65 249.53 20.675 249.455 20.875C249.355 20.925 249.23 20.925 249.18 21C249.005 21 248.905 21.075 248.805 21.275H249.055V21.375C248.73 21.6 248.305 21.8 248.08 22.075C247.68 22.2 247.38 22.5 247.055 22.725C246.68 22.9 246.355 23.125 246.03 23.325C245.43 23.65 244.83 24.05 244.13 24.325C243.805 24.425 243.505 24.55 243.18 24.675C242.555 24.9 241.855 24.9 241.205 24.725C241.155 24.725 241.03 24.675 241.005 24.65C240.83 24.35 240.605 24.15 240.48 23.775C240.305 23.375 240.205 22.925 240.255 22.475C240.33 22.075 240.43 21.7 240.53 21.325C240.905 20.375 241.405 19.55 242.055 18.775C242.255 18.525 242.555 18.275 242.755 18.025C242.98 17.8 243.28 17.75 243.555 17.875C243.78 18.025 243.98 18.2 244.18 18.375C244.255 18.5 244.18 18.7 244.08 18.7H244.005C243.655 18.625 243.38 18.85 243.255 19.125C243.005 19.55 242.755 19.85 242.555 20.2C242.155 20.75 241.755 21.375 241.555 21.975C241.505 22.2 241.405 22.4 241.255 22.625C241.155 22.925 241.13 23.2 241.205 23.55C241.43 23.725 241.805 23.725 242.13 23.65C242.43 23.55 242.755 23.45 243.08 23.325C243.38 23.25 243.68 23.125 244.005 22.975C244.255 22.8 244.605 22.725 244.905 22.5C245.53 22.225 246.03 21.875 246.68 21.5C247.155 21.25 247.58 20.925 248.105 20.675C248.23 20.65 248.43 20.55 248.53 20.45C248.805 20.15 249.23 19.975 249.53 19.8C249.83 19.65 250.055 19.5 250.33 19.325C250.455 19.25 251.055 18.95 251.205 18.975C251.33 19.025 251.08 19.25 251.18 19.5ZM244.53 15.55C244.13 15.425 244.03 14.85 244.43 14.575C244.68 14.4 244.93 14.3 245.255 14.325C245.305 14.325 245.355 14.4 245.405 14.4C245.53 14.575 245.73 14.7 245.755 14.925C245.755 15.05 245.83 15.2 245.73 15.35C245.555 15.45 245.405 15.6 245.13 15.625H244.905C244.83 15.6 244.68 15.6 244.53 15.55ZM250.155 20.2C250.205 20.2 250.28 20.075 250.33 20.025C249.955 20.125 249.605 20.275 249.255 20.475C248.73 20.8 248.205 21.075 247.68 21.4C247.58 21.45 247.43 21.55 247.43 21.6C247.68 21.6 247.88 21.5 248.105 21.375C248.78 21 249.455 20.55 250.155 20.2ZM260.841 19.65C261.016 19.75 261.116 20.025 260.966 20.15C260.966 20.2 260.841 20.225 260.816 20.225C260.391 20.275 260.041 20.475 259.616 20.65C258.991 20.925 258.366 21.15 257.766 21.4C257.691 21.45 257.591 21.45 257.566 21.5C257.066 21.875 256.441 21.975 255.916 22.275C255.366 22.5 254.816 22.75 254.291 23C253.541 23.425 252.716 23.725 251.841 23.85C251.691 23.9 251.591 23.9 251.491 24.025C250.991 24.225 250.566 24.05 250.141 23.9C249.866 23.825 249.666 23.7 249.491 23.525C249.191 23.3 249.066 22.975 248.966 22.675C248.866 22.125 248.866 22.025 248.966 21.575L249.141 21.25C249.541 20.35 250.141 19.625 250.891 19.025C251.591 18.375 252.316 17.8 253.166 17.35C253.391 17.175 253.741 17.025 254.066 16.975C254.291 16.875 254.591 16.85 254.816 16.75C255.141 16.525 255.416 16.475 255.716 16.675C255.766 16.75 255.841 16.675 255.941 16.75C256.041 16.775 256.191 16.8 256.216 16.85C256.416 17.025 256.541 17.275 256.616 17.4C256.816 17.75 256.816 18.1 256.566 18.375C256.241 18.775 256.041 19.225 255.541 19.425L255.191 19.65C254.516 20.2 253.691 20.45 252.866 20.575C252.641 20.675 252.366 20.65 252.141 20.65C251.816 20.65 251.416 20.575 251.016 20.575C250.941 20.575 250.891 20.575 250.791 20.675C250.391 21.25 249.891 21.775 249.666 22.425C249.591 22.675 249.691 22.825 249.866 22.9C250.141 22.975 250.466 23.125 250.716 22.975C251.266 22.975 251.816 22.8 252.316 22.675C252.741 22.6 253.191 22.325 253.591 22.2C254.066 21.975 254.441 21.775 254.866 21.55C254.991 21.7 254.991 21.7 255.116 21.55C255.291 21.375 255.516 21.25 255.766 21.15C255.816 21.05 255.941 21.05 256.091 21C256.916 20.65 257.766 20.225 258.541 19.9C258.791 19.75 259.016 19.725 259.266 19.625C259.466 19.55 259.716 19.425 259.891 19.3C260.216 19.2 260.416 19.225 260.616 19.5C260.691 19.575 260.766 19.625 260.841 19.65ZM251.341 19.95C251.316 19.975 251.166 20.125 251.191 20.2C251.266 20.275 251.416 20.2 251.491 20.2C251.591 20.15 251.691 20.15 251.816 20.15V20.2C252.041 20.15 252.341 20.125 252.541 20.075C252.841 19.975 253.066 19.9 253.391 19.75C254.066 19.55 254.616 19.25 255.141 18.85C255.416 18.7 255.641 18.4 255.766 18.1C255.841 18.025 255.841 17.875 255.841 17.75C255.916 17.625 255.816 17.575 255.716 17.475C255.641 17.4 255.541 17.5 255.516 17.575C255.491 17.675 255.366 17.7 255.216 17.7C254.666 17.75 254.116 17.9 253.641 18.2C253.016 18.5 252.516 18.925 252.016 19.3L251.341 19.95ZM277.924 18.9C277.899 19.25 278.174 19.525 277.149 19.925C276.649 20.125 276.174 20.275 275.649 20.45C275.474 20.575 275.299 20.6 275.149 20.6C274.974 20.6 274.899 20.65 274.949 20.825C274.949 20.825 274.874 20.85 274.799 20.9L272.099 22C271.374 22.275 270.574 22.575 269.924 22.8C269.524 23.025 269.174 23.125 268.824 23.225C268.424 23.375 268.024 23.375 267.599 23.3C267.499 23.225 267.299 23.125 267.174 23.05C267.049 22.925 266.849 22.725 266.749 22.575C266.649 22.425 266.599 22.275 266.599 22.1C266.574 21.275 266.599 20.45 266.874 19.675C266.999 19.425 267.074 19.15 267.124 18.925C267.174 18.8 267.199 18.575 267.199 18.375C267.199 18.2 267.174 18.175 267.049 18.3C266.449 18.5 265.874 18.725 265.349 18.925C265.024 19.075 264.824 19.25 264.524 19.4C264.124 19.675 263.699 19.925 263.299 20.225C263.149 20.375 262.824 20.375 262.674 20.6C261.849 21.1 261.174 21.775 260.499 22.425C260.374 22.525 260.249 22.675 260.149 22.775C259.924 23.125 259.599 23.425 259.199 23.625C259.099 23.725 259.049 23.825 258.949 23.925C258.874 23.95 258.674 23.95 258.574 23.85C258.374 23.5 258.149 23.125 258.374 22.7C258.449 22.5 258.549 22.2 258.674 22C258.799 21.7 258.949 21.475 259.074 21.175C259.099 21.1 259.149 20.95 259.274 20.85C259.824 20.025 260.249 19.075 260.524 18.1C260.649 17.825 260.824 17.75 261.049 17.825C261.324 17.975 261.549 18.125 261.724 18.375C261.824 18.475 261.749 18.525 261.724 18.575C261.524 18.825 261.349 19.075 261.324 19.4C261.249 19.5 261.174 19.6 261.149 19.725C260.849 20.25 260.524 20.775 260.299 21.275C260.249 21.375 260.149 21.5 260.149 21.625C260.199 21.625 260.249 21.625 260.299 21.6C260.799 21.25 261.249 20.95 261.724 20.575C262.249 20.15 262.674 19.725 263.299 19.425C263.599 19.15 263.999 19.025 264.324 18.825C264.649 18.525 265.024 18.375 265.424 18.125C265.724 18.05 265.924 17.875 266.149 17.75C266.349 17.6 266.649 17.5 266.874 17.4C267.124 17.25 267.349 17.275 267.574 17.275C267.599 17.275 267.699 17.35 267.749 17.4C267.874 17.575 268.074 17.775 268.199 17.975C268.224 18.05 268.224 18.175 268.199 18.3C268.074 18.9 267.924 19.5 267.774 20.125C267.699 20.575 267.574 21.075 267.474 21.5C267.374 21.625 267.349 21.8 267.349 21.975C267.299 22.25 267.474 22.325 267.774 22.275C268.474 22.25 269.099 22.025 269.699 21.875C270.149 21.6 270.699 21.5 271.174 21.275C271.599 21.1 271.974 20.9 272.424 20.75C273.024 20.575 273.624 20.275 274.174 20.125C274.724 19.875 275.199 19.725 275.774 19.5C276.224 19.25 276.724 19.15 277.199 18.9C277.349 18.8 277.624 18.85 277.849 18.825C277.899 18.825 277.924 18.85 277.924 18.9ZM277.349 19.55C277.399 19.55 277.399 19.525 277.399 19.525C277.349 19.5 277.324 19.425 277.324 19.5C277.024 19.525 276.799 19.6 276.499 19.725C276.474 19.75 276.374 19.85 276.299 19.8C275.974 19.725 275.724 19.925 275.399 20.025C275.299 20.025 275.399 20.25 275.149 20.25C275.074 20.25 274.974 20.275 274.899 20.325C274.774 20.375 274.624 20.425 274.549 20.425C274.149 20.575 273.749 20.675 273.399 20.825C273.324 20.85 273.224 20.9 273.224 20.975C273.399 21.075 273.549 20.975 273.724 20.95C274.374 20.775 274.949 20.425 275.574 20.325C275.599 20.275 275.649 20.275 275.724 20.25C275.849 20.05 276.099 20.125 276.224 20.025C276.699 19.95 276.999 19.725 277.349 19.55ZM272.224 21.35C272.424 21.35 272.674 21.35 272.824 21.15C272.599 21.1 272.399 21.175 272.224 21.3V21.35ZM271.799 21.5C271.949 21.55 272.099 21.55 272.174 21.375C272.124 21.375 272.049 21.35 271.974 21.35C271.899 21.35 271.874 21.375 271.799 21.5ZM272.824 21.15C272.999 21.15 273.149 21.175 273.199 20.975H273.024C272.924 20.975 272.824 21.075 272.824 21.15ZM269.424 22.4C269.499 22.4 269.574 22.4 269.624 22.275H269.349L269.324 22.325C269.349 22.325 269.349 22.4 269.424 22.4ZM269.824 22.25C269.924 22.25 269.974 22.25 269.974 22.175C269.924 22.175 269.699 22.1 269.649 22.25H269.824Z" fill="white"/>
</g>
<defs>
<filter id="filter0_d_101_56" x="0.491486" y="0.958801" width="281.683" height="37.9006" filterUnits="userSpaceOnUse" color-interpolation-filters="sRGB">
<feFlood flood-opacity="0" result="BackgroundImageFix"/>
<feColorMatrix in="SourceAlpha" type="matrix" values="0 0 0 0 0 0 0 0 0 0 0 0 0 0 0 0 0 0 127 0" result="hardAlpha"/>
<feOffset dy="4"/>
<feGaussianBlur stdDeviation="2"/>
<feComposite in2="hardAlpha" operator="out"/>
<feColorMatrix type="matrix" values="0 0 0 0 0 0 0 0 0 0 0 0 0 0 0 0 0 0 0.25 0"/>
<feBlend mode="normal" in2="BackgroundImageFix" result="effect1_dropShadow_101_56"/>
<feBlend mode="normal" in="SourceGraphic" in2="effect1_dropShadow_101_56" result="shape"/>
</filter>
</defs>
</svg>
